<svg viewBox="0 0 200 200" xmlns="http://www.w3.org/2000/svg">
  <rect width="200" height="200" rx="40" fill="#000000"/>

  <path d="M100 32
           C100 32 62 72 62 118
           C62 150 78 172 100 172
           C122 172 138 150 138 118
           C138 100 128 88 120 78
           C122 96 114 106 106 106
           C102 106 100 102 101 96
           C102 84 108 66 100 32 Z"
        fill="#8FB800" opacity="0.35"/>

  <path d="M100 42
           C100 42 70 78 70 116
           C70 142 84 160 100 160
           C116 160 130 142 130 116
           C130 102 122 92 116 84
           C117 98 111 106 104 106
           C100 106 98 102 99 97
           C100 87 105 70 100 42 Z"
        fill="#C3F400"/>

  <path d="M100 74
           C100 74 86 96 86 116
           C86 130 92 140 100 140
           C108 140 114 130 114 116
           C114 109 111 104 108 100
           C108 107 105 111 101 111
           C99 111 98 109 98 106
           C99 98 102 88 100 74 Z"
        fill="#F4FFB0" opacity="0.85"/>

  <path d="M64 130
           C64 130 55 142 55 152
           C55 160 60 166 66 166
           C72 166 77 160 77 152
           C77 146 73 141 70 137
           C70 143 67 146 64 146
           C62 146 61 144 62 141
           C63 137 65 133 64 130 Z"
        fill="#C3F400" opacity="0.6"/>

  <circle cx="100" cy="146" r="10" fill="#000000"/>
  <circle cx="100" cy="146" r="5" fill="#3C4D00"/>
</svg>
